<mxfile host="app.diagrams.net" agent="Mozilla/5.0 (Macintosh; Intel Mac OS X 10_15_7) AppleWebKit/605.1.15 (KHTML, like Gecko) Version/17.5 Safari/605.1.15" version="24.7.17">
  <diagram name="Page-1" id="OL-ri_v8O1SVaGKDePar">
    <mxGraphModel dx="1380" dy="375" grid="1" gridSize="10" guides="1" tooltips="1" connect="1" arrows="1" fold="1" page="1" pageScale="1" pageWidth="850" pageHeight="1100" math="0" shadow="0">
      <root>
        <mxCell id="0" />
        <mxCell id="1" parent="0" />
        <mxCell id="XrycKpvrp2F0hZC2AMQf-25" style="edgeStyle=orthogonalEdgeStyle;rounded=0;orthogonalLoop=1;jettySize=auto;html=1;shape=link;" parent="1" source="XrycKpvrp2F0hZC2AMQf-17" edge="1">
          <mxGeometry relative="1" as="geometry">
            <mxPoint x="390" y="280" as="targetPoint" />
            <Array as="points">
              <mxPoint x="390" y="280" />
            </Array>
          </mxGeometry>
        </mxCell>
        <mxCell id="XrycKpvrp2F0hZC2AMQf-51" value="CAN&lt;div&gt;Bus&lt;/div&gt;&lt;div&gt;Differential&lt;br&gt;&lt;/div&gt;&lt;div&gt;Pair&lt;/div&gt;" style="edgeLabel;html=1;align=center;verticalAlign=middle;resizable=0;points=[];" parent="XrycKpvrp2F0hZC2AMQf-25" vertex="1" connectable="0">
          <mxGeometry x="-0.2898" y="-2" relative="1" as="geometry">
            <mxPoint x="-10" as="offset" />
          </mxGeometry>
        </mxCell>
        <mxCell id="oyfi-5hGYGsT8HOiiuwC-3" style="edgeStyle=orthogonalEdgeStyle;rounded=0;orthogonalLoop=1;jettySize=auto;html=1;exitX=0.25;exitY=1;exitDx=0;exitDy=0;entryX=0.25;entryY=0;entryDx=0;entryDy=0;shape=link;" parent="1" source="oyfi-5hGYGsT8HOiiuwC-1" target="oyfi-5hGYGsT8HOiiuwC-2" edge="1">
          <mxGeometry relative="1" as="geometry" />
        </mxCell>
        <mxCell id="oyfi-5hGYGsT8HOiiuwC-4" value="CAN&lt;div&gt;Bus&lt;/div&gt;&lt;div&gt;Differential&lt;br&gt;&lt;/div&gt;&lt;div&gt;Pair&lt;/div&gt;" style="edgeLabel;html=1;align=center;verticalAlign=middle;resizable=0;points=[];" parent="oyfi-5hGYGsT8HOiiuwC-3" vertex="1" connectable="0">
          <mxGeometry x="-0.15" y="-2" relative="1" as="geometry">
            <mxPoint x="2" y="18" as="offset" />
          </mxGeometry>
        </mxCell>
        <mxCell id="oyfi-5hGYGsT8HOiiuwC-5" style="edgeStyle=orthogonalEdgeStyle;rounded=0;orthogonalLoop=1;jettySize=auto;html=1;exitX=0.75;exitY=1;exitDx=0;exitDy=0;entryX=0.75;entryY=0;entryDx=0;entryDy=0;shape=link;" parent="1" source="oyfi-5hGYGsT8HOiiuwC-1" target="oyfi-5hGYGsT8HOiiuwC-2" edge="1">
          <mxGeometry relative="1" as="geometry" />
        </mxCell>
        <mxCell id="oyfi-5hGYGsT8HOiiuwC-6" value="24V&lt;div&gt;4A&lt;/div&gt;" style="edgeLabel;html=1;align=center;verticalAlign=middle;resizable=0;points=[];" parent="oyfi-5hGYGsT8HOiiuwC-5" vertex="1" connectable="0">
          <mxGeometry x="-0.2929" relative="1" as="geometry">
            <mxPoint y="5" as="offset" />
          </mxGeometry>
        </mxCell>
        <mxCell id="XrycKpvrp2F0hZC2AMQf-7" style="edgeStyle=orthogonalEdgeStyle;rounded=0;orthogonalLoop=1;jettySize=auto;html=1;" parent="1" source="oyfi-5hGYGsT8HOiiuwC-1" edge="1">
          <mxGeometry relative="1" as="geometry">
            <mxPoint x="360" y="90" as="targetPoint" />
          </mxGeometry>
        </mxCell>
        <mxCell id="XrycKpvrp2F0hZC2AMQf-9" value="CAT 5 or 6&lt;div&gt;CAN Bus&lt;/div&gt;&lt;div&gt;24V, 4A&lt;/div&gt;" style="edgeLabel;html=1;align=center;verticalAlign=middle;resizable=0;points=[];" parent="XrycKpvrp2F0hZC2AMQf-7" vertex="1" connectable="0">
          <mxGeometry x="-0.0965" y="-1" relative="1" as="geometry">
            <mxPoint x="-1" y="6" as="offset" />
          </mxGeometry>
        </mxCell>
        <mxCell id="oyfi-5hGYGsT8HOiiuwC-1" value="RJ45 Jack&lt;div&gt;Top&lt;/div&gt;" style="whiteSpace=wrap;html=1;aspect=fixed;" parent="1" vertex="1">
          <mxGeometry x="320" y="180" width="80" height="80" as="geometry" />
        </mxCell>
        <mxCell id="XrycKpvrp2F0hZC2AMQf-13" style="edgeStyle=orthogonalEdgeStyle;rounded=0;orthogonalLoop=1;jettySize=auto;html=1;" parent="1" source="oyfi-5hGYGsT8HOiiuwC-2" edge="1">
          <mxGeometry relative="1" as="geometry">
            <mxPoint x="580" y="400" as="targetPoint" />
          </mxGeometry>
        </mxCell>
        <mxCell id="oyfi-5hGYGsT8HOiiuwC-2" value="RJ45 Jack&lt;div&gt;Bottom&lt;/div&gt;" style="whiteSpace=wrap;html=1;aspect=fixed;" parent="1" vertex="1">
          <mxGeometry x="320" y="360" width="80" height="80" as="geometry" />
        </mxCell>
        <mxCell id="XrycKpvrp2F0hZC2AMQf-8" value="To Network" style="text;html=1;align=center;verticalAlign=middle;resizable=0;points=[];autosize=1;strokeColor=none;fillColor=none;" parent="1" vertex="1">
          <mxGeometry x="320" y="70" width="80" height="30" as="geometry" />
        </mxCell>
        <mxCell id="XrycKpvrp2F0hZC2AMQf-14" value="To Network" style="text;html=1;align=center;verticalAlign=middle;resizable=0;points=[];autosize=1;strokeColor=none;fillColor=none;" parent="1" vertex="1">
          <mxGeometry x="490" y="380" width="80" height="30" as="geometry" />
        </mxCell>
        <mxCell id="XrycKpvrp2F0hZC2AMQf-15" value="CAT 5 or 6&lt;div&gt;CAN Bus&lt;/div&gt;&lt;div&gt;24V, 4A&lt;/div&gt;" style="edgeLabel;html=1;align=center;verticalAlign=middle;resizable=0;points=[];" parent="1" vertex="1" connectable="0">
          <mxGeometry x="460" y="380.0019047619047" as="geometry">
            <mxPoint x="-2" y="8" as="offset" />
          </mxGeometry>
        </mxCell>
        <mxCell id="XrycKpvrp2F0hZC2AMQf-21" style="edgeStyle=orthogonalEdgeStyle;rounded=0;orthogonalLoop=1;jettySize=auto;html=1;entryX=0;entryY=0.5;entryDx=0;entryDy=0;shape=link;" parent="1" source="XrycKpvrp2F0hZC2AMQf-16" target="XrycKpvrp2F0hZC2AMQf-17" edge="1">
          <mxGeometry relative="1" as="geometry" />
        </mxCell>
        <mxCell id="XrycKpvrp2F0hZC2AMQf-22" value="/2 TWAI Serial" style="edgeLabel;html=1;align=center;verticalAlign=middle;resizable=0;points=[];" parent="XrycKpvrp2F0hZC2AMQf-21" vertex="1" connectable="0">
          <mxGeometry x="0.1926" relative="1" as="geometry">
            <mxPoint x="-9" as="offset" />
          </mxGeometry>
        </mxCell>
        <mxCell id="XrycKpvrp2F0hZC2AMQf-16" value="&lt;div&gt;Microcontroller&lt;/div&gt;ESP32 S3&lt;div&gt;wroom-02&lt;/div&gt;" style="whiteSpace=wrap;html=1;aspect=fixed;" parent="1" vertex="1">
          <mxGeometry x="-20" y="240" width="100" height="100" as="geometry" />
        </mxCell>
        <mxCell id="XrycKpvrp2F0hZC2AMQf-17" value="CAN Transceiver&lt;div&gt;MCP2551&lt;/div&gt;" style="whiteSpace=wrap;html=1;aspect=fixed;" parent="1" vertex="1">
          <mxGeometry x="170" y="250" width="80" height="80" as="geometry" />
        </mxCell>
        <mxCell id="ekSo-SWd0g9FvmDKu4Mh-13" style="edgeStyle=orthogonalEdgeStyle;rounded=0;orthogonalLoop=1;jettySize=auto;html=1;entryX=1;entryY=0.5;entryDx=0;entryDy=0;" edge="1" parent="1" source="XrycKpvrp2F0hZC2AMQf-26" target="XrycKpvrp2F0hZC2AMQf-32">
          <mxGeometry relative="1" as="geometry" />
        </mxCell>
        <mxCell id="ekSo-SWd0g9FvmDKu4Mh-14" style="edgeStyle=orthogonalEdgeStyle;rounded=0;orthogonalLoop=1;jettySize=auto;html=1;entryX=0.5;entryY=1;entryDx=0;entryDy=0;" edge="1" parent="1" source="XrycKpvrp2F0hZC2AMQf-26" target="XrycKpvrp2F0hZC2AMQf-17">
          <mxGeometry relative="1" as="geometry" />
        </mxCell>
        <mxCell id="XrycKpvrp2F0hZC2AMQf-26" value="24V - 5V&lt;div&gt;Switch Regulator&lt;/div&gt;&lt;div&gt;TR10S05&lt;/div&gt;" style="whiteSpace=wrap;html=1;aspect=fixed;" parent="1" vertex="1">
          <mxGeometry x="250" y="560" width="80" height="80" as="geometry" />
        </mxCell>
        <mxCell id="ekSo-SWd0g9FvmDKu4Mh-12" style="edgeStyle=orthogonalEdgeStyle;rounded=0;orthogonalLoop=1;jettySize=auto;html=1;entryX=0.5;entryY=1;entryDx=0;entryDy=0;" edge="1" parent="1" source="XrycKpvrp2F0hZC2AMQf-32" target="XrycKpvrp2F0hZC2AMQf-16">
          <mxGeometry relative="1" as="geometry">
            <Array as="points">
              <mxPoint x="155" y="400" />
              <mxPoint x="30" y="400" />
            </Array>
          </mxGeometry>
        </mxCell>
        <mxCell id="XrycKpvrp2F0hZC2AMQf-32" value="5V - 3.3V&lt;div&gt;Linear&lt;/div&gt;&lt;div&gt;Regulator&lt;/div&gt;&lt;div&gt;Az1117IH-3.3&lt;br&gt;&lt;/div&gt;" style="whiteSpace=wrap;html=1;aspect=fixed;" parent="1" vertex="1">
          <mxGeometry x="115" y="560" width="80" height="80" as="geometry" />
        </mxCell>
        <mxCell id="XrycKpvrp2F0hZC2AMQf-38" style="edgeStyle=orthogonalEdgeStyle;rounded=0;orthogonalLoop=1;jettySize=auto;html=1;entryX=0;entryY=0.5;entryDx=0;entryDy=0;shape=link;" parent="1" source="XrycKpvrp2F0hZC2AMQf-37" target="XrycKpvrp2F0hZC2AMQf-16" edge="1">
          <mxGeometry relative="1" as="geometry" />
        </mxCell>
        <mxCell id="XrycKpvrp2F0hZC2AMQf-39" value="/2 UART" style="edgeLabel;html=1;align=center;verticalAlign=middle;resizable=0;points=[];" parent="XrycKpvrp2F0hZC2AMQf-38" vertex="1" connectable="0">
          <mxGeometry x="0.0063" relative="1" as="geometry">
            <mxPoint as="offset" />
          </mxGeometry>
        </mxCell>
        <mxCell id="XrycKpvrp2F0hZC2AMQf-37" value="&lt;div&gt;Firmware Flashing &amp;amp; Peripheral Serial&lt;/div&gt;&lt;div&gt;Header&lt;/div&gt;" style="whiteSpace=wrap;html=1;aspect=fixed;" parent="1" vertex="1">
          <mxGeometry x="-290" y="250" width="80" height="80" as="geometry" />
        </mxCell>
        <mxCell id="XrycKpvrp2F0hZC2AMQf-40" value="&lt;div&gt;GPIO Header&lt;/div&gt;" style="whiteSpace=wrap;html=1;aspect=fixed;" parent="1" vertex="1">
          <mxGeometry x="-450" y="270" width="80" height="80" as="geometry" />
        </mxCell>
        <mxCell id="XrycKpvrp2F0hZC2AMQf-52" value="&lt;div&gt;I2C&lt;/div&gt;&lt;div&gt;Stemma QT&lt;/div&gt;&lt;div&gt;Connector&lt;/div&gt;" style="whiteSpace=wrap;html=1;aspect=fixed;" parent="1" vertex="1">
          <mxGeometry x="-290" y="530" width="80" height="80" as="geometry" />
        </mxCell>
        <mxCell id="x0cvvJsSu27vA0oa_3h0-1" value="BASE STATIion" style="text;html=1;align=center;verticalAlign=middle;whiteSpace=wrap;rounded=0;" parent="1" vertex="1">
          <mxGeometry x="-170" y="100" width="60" height="30" as="geometry" />
        </mxCell>
        <mxCell id="HpbLE3dxOEh4a_S6CJni-1" value="ALERT&lt;div&gt;NeoPixel&lt;/div&gt;" style="whiteSpace=wrap;html=1;aspect=fixed;" parent="1" vertex="1">
          <mxGeometry x="195" y="690" width="80" height="80" as="geometry" />
        </mxCell>
        <mxCell id="HpbLE3dxOEh4a_S6CJni-2" value="Buzzer" style="whiteSpace=wrap;html=1;aspect=fixed;" parent="1" vertex="1">
          <mxGeometry x="350" y="690" width="80" height="80" as="geometry" />
        </mxCell>
        <mxCell id="HpbLE3dxOEh4a_S6CJni-3" value="Satus LED" style="whiteSpace=wrap;html=1;aspect=fixed;" parent="1" vertex="1">
          <mxGeometry x="490" y="690" width="80" height="80" as="geometry" />
        </mxCell>
        <mxCell id="ekSo-SWd0g9FvmDKu4Mh-1" style="edgeStyle=orthogonalEdgeStyle;rounded=0;orthogonalLoop=1;jettySize=auto;html=1;entryX=1;entryY=0.5;entryDx=0;entryDy=0;" edge="1" parent="1" source="HpbLE3dxOEh4a_S6CJni-8" target="fV9_LtwaisOyKF20sLS7-4">
          <mxGeometry relative="1" as="geometry" />
        </mxCell>
        <mxCell id="ekSo-SWd0g9FvmDKu4Mh-2" value="24V, 3.185A" style="edgeLabel;html=1;align=center;verticalAlign=middle;resizable=0;points=[];" vertex="1" connectable="0" parent="ekSo-SWd0g9FvmDKu4Mh-1">
          <mxGeometry x="0.2033" relative="1" as="geometry">
            <mxPoint x="10" as="offset" />
          </mxGeometry>
        </mxCell>
        <mxCell id="HpbLE3dxOEh4a_S6CJni-8" value="System PWR Barrel Plug" style="whiteSpace=wrap;html=1;aspect=fixed;" parent="1" vertex="1">
          <mxGeometry x="550" y="560" width="80" height="80" as="geometry" />
        </mxCell>
        <mxCell id="ekSo-SWd0g9FvmDKu4Mh-5" style="edgeStyle=orthogonalEdgeStyle;rounded=0;orthogonalLoop=1;jettySize=auto;html=1;" edge="1" parent="1" source="HpbLE3dxOEh4a_S6CJni-10">
          <mxGeometry relative="1" as="geometry">
            <mxPoint x="380" y="330" as="targetPoint" />
            <Array as="points">
              <mxPoint x="420" y="330" />
            </Array>
          </mxGeometry>
        </mxCell>
        <mxCell id="HpbLE3dxOEh4a_S6CJni-10" value="CAN Bus Current Sensing&lt;div&gt;3.3 V&lt;/div&gt;" style="whiteSpace=wrap;html=1;aspect=fixed;" parent="1" vertex="1">
          <mxGeometry x="380" y="450" width="80" height="80" as="geometry" />
        </mxCell>
        <mxCell id="HpbLE3dxOEh4a_S6CJni-11" value="Button?" style="whiteSpace=wrap;html=1;aspect=fixed;" parent="1" vertex="1">
          <mxGeometry x="620" y="690" width="80" height="80" as="geometry" />
        </mxCell>
        <mxCell id="fV9_LtwaisOyKF20sLS7-2" value="50m ohm resistor" style="whiteSpace=wrap;html=1;aspect=fixed;" parent="1" vertex="1">
          <mxGeometry x="250" y="790" width="80" height="80" as="geometry" />
        </mxCell>
        <mxCell id="ekSo-SWd0g9FvmDKu4Mh-3" style="edgeStyle=orthogonalEdgeStyle;rounded=0;orthogonalLoop=1;jettySize=auto;html=1;entryX=0.5;entryY=1;entryDx=0;entryDy=0;" edge="1" parent="1" source="fV9_LtwaisOyKF20sLS7-4" target="HpbLE3dxOEh4a_S6CJni-10">
          <mxGeometry relative="1" as="geometry" />
        </mxCell>
        <mxCell id="ekSo-SWd0g9FvmDKu4Mh-4" value="24V, 4A" style="edgeLabel;html=1;align=center;verticalAlign=middle;resizable=0;points=[];" vertex="1" connectable="0" parent="ekSo-SWd0g9FvmDKu4Mh-3">
          <mxGeometry x="0.6365" y="1" relative="1" as="geometry">
            <mxPoint x="1" y="11" as="offset" />
          </mxGeometry>
        </mxCell>
        <mxCell id="fV9_LtwaisOyKF20sLS7-4" value="Smart High-Side Switch&lt;div&gt;ITS428L2&lt;/div&gt;" style="whiteSpace=wrap;html=1;aspect=fixed;" parent="1" vertex="1">
          <mxGeometry x="380" y="560" width="80" height="80" as="geometry" />
        </mxCell>
        <mxCell id="ekSo-SWd0g9FvmDKu4Mh-9" style="edgeStyle=orthogonalEdgeStyle;rounded=0;orthogonalLoop=1;jettySize=auto;html=1;entryX=0.958;entryY=0.514;entryDx=0;entryDy=0;entryPerimeter=0;" edge="1" parent="1" source="HpbLE3dxOEh4a_S6CJni-8" target="XrycKpvrp2F0hZC2AMQf-26">
          <mxGeometry relative="1" as="geometry">
            <Array as="points">
              <mxPoint x="590" y="660" />
              <mxPoint x="360" y="660" />
              <mxPoint x="360" y="601" />
            </Array>
          </mxGeometry>
        </mxCell>
        <mxCell id="ekSo-SWd0g9FvmDKu4Mh-10" value="24V, 185mA" style="edgeLabel;html=1;align=center;verticalAlign=middle;resizable=0;points=[];" vertex="1" connectable="0" parent="ekSo-SWd0g9FvmDKu4Mh-9">
          <mxGeometry x="-0.2923" y="1" relative="1" as="geometry">
            <mxPoint as="offset" />
          </mxGeometry>
        </mxCell>
      </root>
    </mxGraphModel>
  </diagram>
</mxfile>
